PathFileType	4	(X/Y/Z)	s09c0301.trc
DataRate	CameraRate	NumFrames	NumMarkers	Units	OrigDataRate	OrigDataStartFrame	OrigNumFrames
200	200	4	50	mm	200	500	2000
Frame#	Time	racr			lacr			c7			jug			rlel			rdr			llel			ldr			s2			lic			ric			lasi			rasi			rpsi			lpsi			rgt			lgt			rth1			rth2			rth3			rth4			rlfc			rmfc			rsh1			rsh2			rsh3			rsh4			rlmal			rmmal			rcal			rtoe			rmt5			lth1			lth2			lth4			lth3			llfc			lmfc			llmal			lmmal			lcal			lmt5			lsh1			lsh2			lsh3			lsh4			ltoe			SBIKE			LBIKE			RBIKE			
		X1	Y1	Z1	X2	Y2	Z2	X3	Y3	Z3	X4	Y4	Z4	X5	Y5	Z5	X6	Y6	Z6	X7	Y7	Z7	X8	Y8	Z8	X9	Y9	Z9	X10	Y10	Z10	X11	Y11	Z11	X12	Y12	Z12	X13	Y13	Z13	X14	Y14	Z14	X15	Y15	Z15	X16	Y16	Z16	X17	Y17	Z17	X18	Y18	Z18	X19	Y19	Z19	X20	Y20	Z20	X21	Y21	Z21	X22	Y22	Z22	X23	Y23	Z23	X24	Y24	Z24	X25	Y25	Z25	X26	Y26	Z26	X27	Y27	Z27	X28	Y28	Z28	X29	Y29	Z29	X30	Y30	Z30	X31	Y31	Z31	X32	Y32	Z32	X33	Y33	Z33	X34	Y34	Z34	X35	Y35	Z35	X36	Y36	Z36	X37	Y37	Z37	X38	Y38	Z38	X39	Y39	Z39	X40	Y40	Z40	X41	Y41	Z41	X42	Y42	Z42	X43	Y43	Z43	X44	Y44	Z44	X45	Y45	Z45	X46	Y46	Z46	X47	Y47	Z47	X48	Y48	Z48	X49	Y49	Z49	X50	Y50	Z50	
500	2.5000	795.835661	1284.256088	-141.083210	685.532914	1234.272301	-486.196307	739.278452	1323.859755	-313.395421	733.397762	1183.715146	-303.503521	658.792047	1096.922815	-5.150125	723.076860	868.929976	-52.213192	496.394779	1019.850202	-434.602258	705.350931	890.306371	-432.885359	303.021113	1175.667079	-92.186493	369.194900	1170.350691	-283.062168	486.040682	1102.789832	-31.402062	392.351094	1102.050529	-286.047825	491.126536	1043.510282	-69.989297	366.113302	1181.576591	-53.450173	316.690685	1219.297425	-142.344923	422.066489	959.781214	13.775281	298.880157	1084.969558	-327.130434	452.684307	832.290196	-18.062423	493.976063	758.297830	-44.515871	485.923480	672.080082	-61.623556	517.903935	769.408238	-69.872926	471.371842	574.278926	-100.887700	438.220421	577.224065	-193.138122	388.756332	510.420395	-65.707784	342.000227	435.810788	-84.204121	266.314405	391.760697	-78.879106	356.501333	425.219270	-120.627598	190.932979	326.884384	-78.639714	194.931280	331.321485	-156.427228	121.580708	370.634738	-110.896334	239.340365	135.650069	-131.191229	188.874658	196.877596	-62.548292	393.132955	984.984913	-360.225639	467.914213	948.945179	-379.093805	498.120712	973.189405	-366.306256	516.074608	875.925140	-401.158251	576.880300	787.023843	-407.612901	609.147695	761.927372	-315.318025	339.647921	505.974285	-400.560557	356.767988	515.859599	-326.554300	258.584257	475.983488	-361.560859	419.967856	423.741601	-435.485229	513.371287	710.512606	-424.538397	473.187739	633.648763	-413.572700	397.787620	587.321011	-407.025986	496.907944	616.669619	-386.533561	515.655184	438.220114	-371.210046	-64.251220	852.706698	-240.902369	21.188246	83.790592	-442.175540	21.230757	83.939132	-43.927760	
501	2.5050	796.120424	1284.050177	-140.565292	686.515015	1232.689466	-485.834555	739.938291	1322.524457	-312.987116	734.138322	1182.626680	-302.923470	658.787504	1096.497403	-4.979394	723.003806	868.937796	-52.068416	496.224861	1019.200861	-433.835129	705.091166	890.015350	-432.041754	303.342650	1174.079697	-92.459137	370.068617	1168.231443	-283.281208	486.244324	1101.940471	-30.779730	393.438551	1099.842949	-285.567922	491.511051	1042.503873	-69.114908	366.281675	1180.279602	-53.503006	316.740247	1218.505316	-141.947547	422.328134	958.561890	14.581578	300.201887	1082.269987	-327.236613	452.783928	831.607284	-17.550202	494.576611	757.714545	-43.120986	486.383596	671.366383	-60.558950	518.602580	768.865162	-68.315207	473.117256	573.300222	-99.789971	440.176569	576.982685	-192.398358	389.537202	511.049825	-64.831480	341.425286	437.546069	-83.446992	264.630258	394.707676	-78.334729	355.419976	426.512151	-120.160274	187.687227	331.701580	-78.415859	192.369734	336.206947	-156.217870	118.461914	375.996170	-111.017839	235.470300	140.482670	-131.089812	185.214471	201.775811	-62.467694	394.308710	982.199936	-360.001459	468.762938	945.769878	-378.815686	495.700442	969.482173	-368.119394	516.655682	872.441667	-400.572572	576.794320	783.151691	-406.776316	609.008595	758.062317	-314.614670	342.115906	499.925572	-400.747097	359.018031	509.779343	-326.678601	261.289102	468.966287	-361.781541	423.283682	418.331165	-435.600787	513.862644	705.812319	-423.903809	474.563731	628.730583	-413.303740	398.981667	582.106943	-407.400898	498.376667	612.008828	-386.206145	518.806397	433.820446	-371.327170	-64.262036	852.691857	-240.935217	21.187324	83.776887	-442.177007	21.221933	83.922726	-43.925462	
502	2.5100	796.478257	1283.871453	-140.007365	687.624532	1231.121217	-485.501426	740.688890	1321.423274	-312.529889	734.936456	1181.597126	-302.308960	658.926173	1096.151097	-4.976147	722.937642	868.853618	-52.017305	496.053320	1018.668976	-432.915729	705.486967	890.388121	-432.479575	303.599806	1172.531807	-92.815693	370.875748	1166.130910	-283.651433	486.410157	1101.005184	-30.208013	394.764122	1097.774442	-285.523454	491.856174	1041.432231	-68.319239	366.422263	1179.030693	-53.619184	317.233906	1216.666766	-142.421310	422.558972	957.267533	15.350487	301.484795	1079.296842	-327.462548	453.041515	830.926316	-16.844445	494.817130	757.112893	-42.062065	486.854500	670.455593	-59.356898	519.097643	767.989218	-67.228279	474.568864	572.628847	-98.458915	442.054781	576.644085	-191.513109	389.495532	512.162972	-64.723993	340.259263	439.222818	-82.873105	262.606914	398.213643	-78.341381	354.476407	428.347804	-119.050865	184.496502	336.493837	-78.194691	189.996347	341.179772	-155.999160	115.443411	381.361302	-111.093003	231.768847	145.429601	-131.103288	181.692982	207.025424	-62.371489	395.441806	979.099537	-360.028236	469.918507	942.141128	-378.405073	496.880771	966.035153	-367.667548	517.330931	868.552912	-399.934051	576.693667	779.002727	-405.919528	608.551469	753.981899	-313.784470	344.352449	493.601182	-400.910987	361.167615	503.630516	-326.731435	264.303611	461.521567	-361.606354	426.345431	412.829291	-435.677031	514.283293	701.329718	-423.394382	475.584165	623.688508	-412.862402	401.173141	576.032259	-406.826124	499.605573	606.464433	-384.975803	521.734470	429.402308	-371.447733	-64.270229	852.687774	-241.073082	21.182947	83.762499	-442.183176	21.209894	83.944836	-43.936370	
503	2.5150	796.876545	1283.748916	-139.489564	688.783463	1229.678117	-485.099536	741.544832	1320.322217	-312.070488	735.729974	1180.690213	-301.712757	659.270286	1095.830223	-5.122601	722.938296	868.806942	-51.953341	495.342816	1018.411001	-431.580409	705.609573	890.382609	-432.121623	303.888137	1170.951783	-93.185509	371.739668	1164.070509	-284.091926	486.493075	1100.282029	-29.761708	396.138019	1095.747776	-285.492291	492.078380	1040.542160	-67.555600	366.521284	1177.788692	-53.758537	317.759061	1214.966930	-143.045084	422.667616	956.131980	15.747981	302.670369	1076.162251	-327.776938	453.457495	830.213520	-16.095492	495.036891	756.330825	-41.171206	487.457917	669.690242	-57.763769	519.598422	767.174407	-66.124539	475.981312	571.951580	-96.974001	443.814098	576.149547	-190.456128	389.748852	513.360141	-63.556297	339.104613	441.342655	-81.944602	260.808202	401.678111	-77.697129	353.404285	429.787220	-117.954001	181.385556	341.635402	-77.929266	187.681483	346.295099	-155.772784	112.453424	387.082995	-111.072772	228.422493	150.854962	-130.916724	178.352940	212.338928	-62.267313	396.601967	975.689527	-360.299093	471.056215	938.301600	-378.061408	498.371249	962.161193	-367.214977	518.064138	864.374925	-399.373568	576.494006	774.603157	-405.004488	607.837698	749.627267	-313.059462	346.415128	487.261972	-400.970810	363.027782	497.293477	-326.718941	266.677275	454.262511	-361.673203	429.288308	407.161992	-435.747937	514.473048	696.428871	-422.786922	476.506394	618.446307	-412.445380	402.633352	570.073078	-406.522184	500.762265	601.558088	-384.680984	524.490707	424.667896	-371.549604	-64.257066	852.657031	-241.092805	21.177182	83.724434	-442.180782	21.201672	83.931177	-43.962245	
